<?xml version="1.0" encoding="UTF-8" standalone="no"?>
<!-- Created with Inkscape (http://www.inkscape.org/) -->

<svg
   width="269.91257mm"
   height="38.177414mm"
   viewBox="0 0 269.91257 38.177415"
   version="1.1"
   id="svg5"
   inkscape:version="1.1.1 (c3084ef, 2021-09-22)"
   sodipodi:docname="silly_vector_line.svg"
   xmlns:inkscape="http://www.inkscape.org/namespaces/inkscape"
   xmlns:sodipodi="http://sodipodi.sourceforge.net/DTD/sodipodi-0.dtd"
   xmlns="http://www.w3.org/2000/svg"
   xmlns:svg="http://www.w3.org/2000/svg">
  <sodipodi:namedview
     id="namedview7"
     pagecolor="#ffffff"
     bordercolor="#666666"
     borderopacity="1.0"
     inkscape:pageshadow="2"
     inkscape:pageopacity="0.0"
     inkscape:pagecheckerboard="0"
     inkscape:document-units="mm"
     showgrid="false"
     inkscape:snap-global="false"
     inkscape:zoom="0.5"
     inkscape:cx="468"
     inkscape:cy="13"
     inkscape:window-width="1440"
     inkscape:window-height="847"
     inkscape:window-x="0"
     inkscape:window-y="25"
     inkscape:window-maximized="0"
     inkscape:current-layer="layer6"
     fit-margin-top="2"
     fit-margin-left="2"
     fit-margin-right="2"
     fit-margin-bottom="2"
     lock-margins="true" />
  <defs
     id="defs2" />
  <g
     inkscape:label="Layer 1"
     inkscape:groupmode="layer"
     id="layer1"
     transform="translate(-572.52225,-101.79841)"
     style="display:inline">
    <path
       style="stroke:none;stroke-width:0.1"
       d="m 575.5174,136.84265 0.38062,-1.83336 -0.44109,-0.0469 c 0.16284,-2.85 0.28418,-5.05874 0.68503,-7.65795 -0.48576,-0.12192 -1.56069,-0.0814 -1.56069,-0.0814 l 0.76237,-4.75403 h 0.73638 v -0.49794 c -1.05394,-0.78157 -0.12804,-3.08948 0.27718,-4.21588 -1.16334,-3.68273 -1.4614,-6.69336 0.57765,-8.56011 -0.47096,-0.39612 -0.59024,-0.5751 -0.59024,-1.17673 l -0.0258,-0.76746 c -0.23425,0.10301 -0.551,0.31321 -0.70041,-8e-4 -0.14941,-0.31401 0.58077,-0.65911 0.58077,-0.65911 -0.15082,-2.25563 3.12414,-3.01401 3.48163,-0.84942 0,0 0.73589,-0.27869 0.79966,0.0233 0.0638,0.30202 -0.65282,0.62697 -0.65282,0.62697 0.10703,0.60369 0.41069,1.59788 0.21825,1.81861 -0.51654,0.59249 -0.80869,0.40175 -0.84288,0.87242 -0.10211,1.40569 1.09878,2.31739 1.96095,3.4469 0.58182,0.57791 0.55448,7.2219 0.26118,8.51299 -0.42587,0.017 -0.7204,0.1063 -1.09975,0.23567 -0.10965,0.55036 -0.21931,1.10071 -0.32896,1.65107 0.63482,0.11909 1.90448,0.35728 1.90448,0.35728 l -0.79192,4.62039 -2.06315,-0.1968 c -0.12709,2.08934 -0.16039,4.81085 -0.28748,6.90019 l -0.33607,-0.0517 c -0.20718,1.50533 2.49109,1.15599 2.54228,2.04671 -0.16587,0.33432 -5.23368,0.81488 -5.44711,0.23704 z"
       id="path34825"
       sodipodi:nodetypes="ccccccccccccsccscsscccccccccccc" />
  </g>
  <g
     inkscape:groupmode="layer"
     id="layer2"
     inkscape:label="Layer 2"
     style="display:inline"
     transform="translate(-572.52225,-101.79841)">
    <path
       style="stroke:none;stroke-width:0.1"
       d="m 593.41535,136.25637 c -0.8217,-1.90649 -2.20802,-2.94063 -1.75555,-3.36351 0.37887,-0.32116 0.70679,-0.68985 1.03919,-1.0569 0.35029,-1.42379 0.63942,-2.96344 0.78235,-4.13996 -0.52233,-0.0768 -1.04765,0.22625 -1.56447,0.39852 -0.75023,2.133 -0.90403,4.4185 -1.18416,6.46444 0.94817,0.86403 2.90075,2.50054 1.94942,2.42727 l -2.0905,-0.16101 c 0,0 -1.95042,0.37415 -2.23642,0.0141 -0.23581,-0.29686 0.24483,-1.55968 0.24483,-1.55968 l -0.39724,-0.24636 c 0.50337,-6.14894 0.76023,-8.2522 0.70264,-8.33882 -0.18438,-1.00622 -0.38449,-2.00897 -0.59666,-3.00958 0.46748,-0.17773 0.75985,-0.15117 1.22733,-0.3289 0.0682,-0.83147 -0.0509,-1.62964 -0.1803,-2.4455 -0.7461,-0.96822 -0.35399,-1.52785 -0.0494,-2.11667 0.65408,-1.5607 0.87548,-2.44814 0.83602,-3.96875 -1.22769,-2.68066 0.23529,-4.51922 1.61948,-6.48191 -0.76935,-0.4852 -0.44658,-1.07158 -0.65975,-1.55678 -0.604,0.0319 -0.68967,-0.66452 0.0558,-0.69364 0.14142,-2.90303 3.59193,-2.7357 3.90881,-0.94161 0.67911,-0.0311 1.1729,0.39389 0.0737,0.69891 0.17997,0.7005 0.13974,1.98947 -0.002,2.40887 -0.44837,0.32662 -0.79995,0.33057 -1.24832,0.65718 v 0.52034 c 2.74908,3.27873 2.44765,4.21807 2.08052,7.94385 0.30814,0.97967 0.76597,2.06626 1.07412,3.04594 -0.32202,0.23545 -0.79372,0.364 -1.11573,0.59947 1.2487,1.47273 2.13054,2.52214 3.24682,3.89021 -1.19999,2.92842 -2.0411,5.02071 -2.94269,7.75554 -0.38414,-0.0397 -0.76828,-0.0795 -1.15242,-0.1192 -0.21329,0.60064 -0.0123,0.95616 0.23893,1.40197 -0.56672,0.66884 -0.90039,1.12608 -0.90039,1.9673 -0.0203,0.67588 0.20926,0.8352 0.635,1.26094 -0.91562,0.0219 -1.10071,-0.31934 -1.63853,-0.92607 z"
       id="path34823"
       sodipodi:nodetypes="ccccccscsccccccccccccccccccccccccccc" />
  </g>
  <g
     inkscape:groupmode="layer"
     id="layer3"
     inkscape:label="Layer 3"
     transform="translate(-572.52225,-101.79841)"
     style="display:inline">
    <path
       style="stroke:none;stroke-width:0.1"
       d="m 607.32629,137.21616 c -1.16883,0.32641 -1.57383,-0.083 -1.55828,-1.16507 0.8484,-1.84723 1.89416,-3.80352 2.41691,-5.60707 h -2.13193 c -0.50517,-1.52513 -0.66883,-3.10903 -0.87318,-4.69356 0.81297,-0.12191 1.62594,-0.24383 2.4389,-0.36574 1.07571,-1.43437 -0.60836,-2.43121 -1.55081,-3.14278 h -1.03193 c -0.9693,-4.81192 -2.53106,-9.94106 3.06418,-12.2559 l 0.31993,-1.59966 c -1.01733,-0.11897 -0.56505,-0.76547 0.0416,-0.72497 0.48602,-2.34765 4.23664,-2.22592 4.23144,0.12498 0.52182,0.0164 0.93037,0.84349 -0.046,0.69714 -0.0796,0.95554 -0.32286,1.6623 -0.66146,2.37712 -0.38004,0.20517 -1.98437,-0.40078 -1.98437,0.36847 0.18726,1.06621 2.02635,1.61976 1.75168,3.90786 -0.22116,2.51981 2.7653,-1.47942 4.01385,0.0271 0.80432,1.00276 0.7127,3.92485 2.56113,6.86132 l -0.91834,0.6715 c 0.11071,1.14538 0.0991,1.23661 0.81348,1.12606 0.15795,1.02253 0.39086,2.033 0.98639,2.86441 0.29481,0.41158 1.44362,0.28357 1.02995,0.66524 -0.56058,0.24374 -0.90827,-0.004 -1.44217,-0.22731 -0.94094,-0.34201 -1.53052,-0.8282 -2.32062,-1.3908 -0.43007,-0.11445 -0.99307,-0.0521 -1.31599,-0.1856 -0.61233,-0.34064 0.48797,-1.96863 0.25127,-2.63348 -0.61797,-1.52038 -1.30442,-3.00945 -1.9925,-4.49873 -0.43655,0.76857 -0.87311,1.53714 -1.30967,2.30571 0.63168,1.00133 0.53282,0.90358 -0.30277,1.56986 0.43267,0.64758 -0.36959,0.86868 -0.33663,1.08307 0.0758,0.49289 0.77759,-0.24249 1.05269,0.20262 -0.0767,0.65258 -0.66976,0.29849 -0.66976,0.96569 l 0.0366,0.57628 c 0.34229,-0.0189 0.67948,-0.0744 1.01768,-0.12677 0.45236,1.88052 0.62241,3.32935 0.83588,5.18596 h -1.91081 c -0.57423,1.63162 -1.83142,2.93329 -1.83142,4.49791 -0.50927,0.0234 -1.74481,-0.20925 -1.5875,0.13459 0.27911,0.61007 0.93528,1.191 1.3555,1.66262 0.25082,0.25537 1.21816,-3.2e-4 1.42262,0.31946 0.15095,0.35022 -0.93436,0.26458 -1.27037,0.26458 -0.87759,-0.0648 -1.72986,0.0402 -2.59524,0.15789 z"
       id="path34827"
       sodipodi:nodetypes="ccccccccccccccccccccsccccccccscccccccsccccc" />
  </g>
  <g
     inkscape:groupmode="layer"
     id="layer4"
     inkscape:label="Layer 4"
     transform="translate(-572.52225,-101.79841)"
     style="display:inline">
    <path
       style="stroke:none;stroke-width:0.1"
       d="m 628.25774,137.92361 c -0.1794,-0.0456 0.55915,-1.17953 0.81978,-1.7293 -0.60421,-0.5256 -1.25828,0.0897 -1.6221,-9.3e-4 -0.52012,-0.45405 -0.46772,-2.22956 -0.80641,-1.69403 -0.36005,0.65109 -0.80888,1.36297 -0.50029,1.96905 0.52651,0.0585 1.01455,0.11163 0.98058,0.41385 -0.45173,0.56281 -1.31492,0.32895 -1.9911,0.32895 -0.57645,-0.62209 -0.6812,-1.16645 -0.91435,-1.93343 -0.43027,-0.62211 -0.98554,-0.95803 -0.98554,-1.69183 0.0652,-0.69125 0.62682,-0.82129 1.17095,-1.16111 1.98134,-0.0874 3.89474,-0.005 5.87608,-0.0925 0.37169,-0.75725 0.37638,-0.96086 -0.0747,-1.65593 -1.00266,-1.67237 -2.33642,-2.41257 -2.87816,-4.11631 0.1829,-1.97252 1.30119,-3.64947 2.17513,-5.38889 -0.32862,-0.28138 -0.65725,-0.35894 -0.98587,-0.64032 1.24914,-2.57491 3.00039,-5.85801 5.10132,-6.21463 0.46371,-0.0787 -0.12783,-0.49627 -0.12783,-0.49627 l 0.24583,-1.66819 c -1.03312,0.0196 -0.76542,-0.7343 0.0466,-0.67529 0.079,-2.44957 3.96296,-2.51678 4.04879,-0.0468 0.90794,0.0496 0.67195,0.79899 0.0221,0.69708 -0.11561,0.87155 -0.0533,2.00584 -0.56764,2.71656 -0.49456,0.26789 -0.88048,0.33529 -1.09453,0.73517 -0.53807,0.86195 -0.002,1.97429 0.17045,2.91582 0,0 0.47523,1.75516 0.35606,2.5632 -0.13718,0.93019 -1.07947,1.79716 -1.57438,3.80671 6.3e-4,0.32662 0.46017,0.30153 0.7236,0.35212 0.51151,0.0982 3.36442,0.58089 3.36442,1.88217 -0.0547,1.17806 -0.68471,2.05726 -1.11215,3.15221 0.23476,1.64901 0.52062,2.90824 0.56159,4.41247 -1.01108,0.0258 -2.01043,0.15353 -3.01233,0.27871 v 0.49814 c 0.37961,0.32884 3.13511,1.00642 2.49179,1.32841 -0.92097,0.30746 -2.75668,0.14754 -3.78524,-0.01 0,0 -1.49471,0.53355 -2.01384,0.10649 -0.12437,-0.36429 -0.11268,-0.79316 -0.1691,-1.19062 l -2.57779,0.11889 c -0.37315,0.70656 -1.11059,2.19272 -1.36172,2.13039 z"
       id="path34829"
       sodipodi:nodetypes="cccccccccccccccsccccccccscscccccccccccc" />
  </g>
  <g
     inkscape:groupmode="layer"
     id="layer5"
     inkscape:label="Layer 5"
     transform="translate(-572.52225,-101.79841)"
     style="display:inline">
    <path
       style="stroke:none;stroke-width:0.1"
       d="m 648.66628,137.03833 c -0.67641,-0.0309 -1.66017,-0.12764 -1.76026,-0.52902 -0.10503,-0.42123 3.34832,-6.91605 2.87152,-7.34222 -2.03136,-1.04725 -5.55007,-2.07077 -5.55007,-2.07077 l 1.1854,-4.42363 2.32209,0.44409 0.1905,-0.60277 c -1.05372,-0.29352 -2.16986,-0.55029 -3.09322,-0.85533 0.98234,-6.49795 -2.87215,-9.83983 4.43957,-12.76348 l 0.38307,-1.07781 c -0.62316,-0.40811 -0.25443,-1.15945 0.5564,-0.6696 1.46066,-2.76767 4.45272,-0.48027 3.71795,1.34611 0.8276,0.40722 0.62779,0.93383 -0.29126,0.77055 -0.37069,0.71019 -0.54982,1.9898 -1.09589,2.17548 -0.56002,-0.10903 -1.40412,-0.20407 -1.70621,-0.18155 0.45959,1.28891 1.03606,1.68789 1.3116,3.31152 3.14666,-1.79197 2.65588,-2.15608 5.58775,-0.14818 1.25582,1.10185 2.69511,1.70111 4.20921,2.30695 -0.106,0.42234 0.0601,0.98076 -0.0459,1.4031 1.4756,-0.64828 1.90661,0.22033 3.07077,-0.6954 0.32443,-0.17941 0.5517,-0.71871 0.86528,-0.40513 0.18941,0.47898 -0.3583,1.18438 -0.73922,1.51772 -0.35615,0.31166 -0.9589,0.25248 -1.29199,0.58867 -0.68496,0.55716 -0.56517,1.76849 -1.44131,1.76849 -0.79774,-0.15307 -1.1129,-0.96713 -1.5838,-1.60405 -3.88427,-1.99825 -5.2346,-3.49608 -5.53157,-3.19911 -0.26177,-0.0104 -3.80141,3.4275 -3.7244,3.7244 0.6262,2.72587 2.43779,7.26677 2.41129,7.78497 -0.0306,0.59925 -2.02537,4.37304 -2.62021,6.74313 -0.42375,0.10636 -0.84752,0.21272 -1.27128,0.31907 0.0174,0.87506 0.60723,1.25822 1.19063,1.80278 0.44258,0.20902 1.45521,0.0756 1.45521,0.59707 -0.79733,0.64776 -2.93916,0.14648 -4.02168,-0.036 z"
       id="path34837"
       sodipodi:nodetypes="cscccccccccccccccccccscccccscccccc" />
  </g>
  <g
     inkscape:groupmode="layer"
     id="layer6"
     inkscape:label="Layer 6"
     transform="translate(-572.52225,-101.79841)"
     style="display:inline">
    <path
       style="stroke:none;stroke-width:0.1"
       d="m 679.65279,137.27093 c -1.60725,-0.36186 -3.10344,0.20665 -3.15803,-0.36857 -0.12713,-0.57945 -0.0572,-1.0999 0.0415,-1.67003 -0.25967,-0.0642 -1.35294,-0.0489 -1.35294,-0.0489 -0.14352,-2.4637 -0.0928,-4.92566 -0.0488,-7.39065 -0.45223,0.0646 -0.88253,0.0125 -1.32863,-0.0508 -0.0294,-0.89497 -0.11159,-1.88692 -0.37436,-2.07643 -0.23243,-0.10577 -2.0526,-0.60575 -3.20511,0.45776 0.15338,-0.26244 0.3102,-0.52272 0.46999,-0.78127 -1.48053,-0.35141 -2.72448,0.34206 -2.80526,0.1878 0.72772,-0.91655 1.84997,-1.27169 2.87203,-1.78864 0.28888,-0.56508 0.40834,-0.89467 1.03414,-0.94176 0.82904,0.21654 1.13735,0.91247 1.71872,1.53978 0.58683,-0.0612 1.17395,0.23139 1.48886,-0.27816 0.56171,-1.65137 -0.23283,-5.24892 0.0879,-5.71871 0.56382,-0.9746 1.71394,-2.04676 4.53392,-4.53398 -0.0155,-3.23653 1.41927,-3.98644 4.23331,-4.59245 0,-0.628 0.0197,-1.49257 0.0197,-2.12057 -1.14773,-0.0482 -0.52605,-0.72624 0.13572,-0.74882 0.0362,-2.6864 3.93904,-2.67067 4.11841,-0.24184 0.85748,0.13621 0.83785,0.81264 -0.0333,0.72993 -0.0723,0.81782 -0.23532,2.25924 -0.39643,2.43978 -0.52049,0.18145 -1.41557,-0.0314 -1.4629,0.4852 v 0.37824 c 1.38144,1.42693 1.02981,0.88235 -1.41817,10.89407 -0.17739,0.23393 -0.58765,0.41349 -0.53218,0.70179 0.34539,0.37437 0.70362,0.40074 1.1566,0.40987 v 1.36851 c 0.5863,-0.0952 1.17259,-0.19029 1.75889,-0.28543 0.51889,1.63163 0.89738,3.20745 1.13752,4.94721 -1.03372,0.2315 -2.05999,0.49277 -3.08662,0.75331 -0.16661,2.86444 -0.28634,8.43093 -0.67596,8.46937 -0.38962,0.0384 -0.29074,-8.17845 -0.29074,-8.17845 l -3.40623,0.83531 c 0,0 -0.4016,-1.81392 -0.65168,-2.67159 -2.28334,-0.68638 -2.00966,0.64714 -1.67166,2.38125 -0.69936,1.862 -0.22252,3.15106 0.11844,5.00156 0.53623,0.49193 1.07244,0.98387 1.60866,1.47581 0.48047,0.28163 1.98437,0.28278 1.98437,0.84208 -0.29586,0.40862 -2.02172,0.19661 -2.61976,0.18844 z"
       id="path34835"
       sodipodi:nodetypes="ccccccccccccccccccccccccccccccczccccccccc" />
  </g>
  <g
     inkscape:groupmode="layer"
     id="layer7"
     inkscape:label="Layer 7"
     transform="translate(-572.52225,-101.79841)"
     style="display:inline">
    <path
       style="stroke:none;stroke-width:0.1"
       d="m 703.74084,137.32601 c -0.44607,-0.054 -1.01808,0.24679 -1.3586,-0.0937 -0.49906,-1.22724 0.28217,-2.35486 0.77564,-3.52493 1.21296,-2.33996 0.80682,-2.30094 0.80682,-2.30094 -0.8519,-0.20951 -2.58477,-0.39343 -2.58477,-0.39343 0.12152,-1.55348 0.24305,-3.10697 0.36458,-4.66045 -1.06301,-1.16732 -2.49582,-1.96164 -3.72819,-2.53975 -0.42066,-4.41134 1.30759,-10.71242 6.71719,-10.84838 0.32057,-0.41359 0.49548,-0.8707 0.67071,-1.35463 -0.65628,-0.23366 -0.50154,-0.91237 0.25782,-0.62928 0.7676,-2.7408 4.50496,-1.69653 3.98234,0.54577 0.80311,0.12204 0.77886,0.8207 -0.0976,0.66827 -0.21454,0.77975 -0.47679,2.05628 -0.82514,2.27073 -0.55296,0.34041 -1.37186,-0.19124 -1.68093,-0.0629 -0.24619,0.10223 -0.28155,0.45273 -0.42233,0.6791 0.28943,3.40439 0.56346,3.42902 -1.20943,5.39142 1.44704,0.70251 2.84826,0.74359 4.44457,1.02079 2.58857,1.59441 4.43594,2.90334 7.19678,3.81448 l 0.83398,-0.83398 c 0.89139,-0.25032 1.07294,-2.11446 1.3737,-2.12196 0.34627,0.3245 0.49708,1.00251 0.47059,1.53798 -0.21779,0.687 -0.58157,1.42686 -0.86212,2.09831 0.27448,0.54271 0.50773,0.59385 -0.12855,1.16977 -0.79189,0.97324 -1.06713,0.49468 -1.91483,0.0718 l -0.84013,-0.41912 c -0.31471,0.38866 -0.45522,0.8862 -0.76993,1.27486 -2.31989,-1.1405 -3.94048,-2.25476 -6.02763,-3.64262 -0.99352,-0.10254 -1.98704,-0.20508 -2.98056,-0.30763 0.0387,1.03715 0.73817,1.6063 1.34379,2.40031 0.6117,0.11475 1.79154,0.12651 1.79154,0.12651 l -0.61554,4.93377 c 0,0 -0.84881,0.0218 -1.18612,0.0218 -0.98677,1.70652 -1.06909,2.7273 -1.06909,4.51452 0.65702,0.2008 1.72809,0.35421 1.74157,0.63089 -0.53386,0.56702 -4.26414,0.0783 -4.4701,0.56265 z"
       id="path34833"
       sodipodi:nodetypes="ccccccccccccsscccccccccccccccccccccc" />
  </g>
  <g
     inkscape:groupmode="layer"
     id="layer8"
     inkscape:label="Layer 8"
     transform="translate(-572.52225,-101.79841)"
     style="display:inline">
    <path
       style="stroke:none;stroke-width:0.1"
       d="m 722.84488,136.79267 c -0.30751,-0.86082 0.93166,-1.38976 2.6739,-8.38175 -1.08817,-0.21409 -3.26451,-0.64226 -3.26451,-0.64226 l 1.14027,-4.72378 c 0,0 0.96938,0.042 1.45816,0.15237 0.28174,-0.6361 -0.47892,-1.00029 -0.89938,-1.34925 0.85973,-6.85138 -1.56986,-8.19516 2.03788,-12.44151 -0.15407,-0.68315 -0.30815,-1.36629 -0.46222,-2.04944 -0.86241,0.0523 -0.66981,-0.67545 -0.0383,-0.74757 -0.30879,-2.3786 3.3301,-2.64751 3.7584,-0.52252 0.71684,0.0521 0.76779,0.55447 0.0649,0.64451 0.057,0.87716 0.0129,2.36958 -0.1718,2.52013 -0.53345,0.20714 -1.46403,0.33121 -1.39987,0.78396 0.89186,1.32853 2.03981,2.99396 2.31784,4.62341 0.0961,1.44492 -1.02451,2.69222 -0.0288,3.68793 1.51869,0.95315 4.3641,0.23187 4.8195,1.06275 0.46016,2.37979 -0.26052,4.81469 0.33716,7.37982 -0.49858,0.12999 -1.19322,0.21306 -1.51523,0.48637 -0.12839,0.22782 0.39321,0.73472 0.58977,1.10198 -0.0977,0.25461 -0.19541,0.50922 -0.29311,0.76383 0.1185,1.18797 1.13331,2.57077 0.82092,2.74235 -0.60245,0.35352 -2.13199,-1.29798 -2.80832,-2.3569 -0.52591,-0.39678 -0.93524,-0.49279 -0.93524,-1.14683 0.0462,-0.71009 0.42123,-0.75371 0.92772,-1.18739 0.1342,-1.73396 0.13061,-3.46907 0.13061,-5.2064 -1.24326,0.0605 -2.14644,0.56348 -3.30729,1.00362 -0.0567,0.28088 -0.004,0.82297 -0.0612,1.10385 0.45607,0.20779 1.25936,0.36218 1.25936,0.36218 0,0 -0.65774,3.11507 -0.97819,4.50488 l -0.95493,-0.1523 c -0.54674,2.33992 -0.97476,4.25769 -1.51407,6.63329 0,0 -0.24231,0.45682 -0.21768,0.69989 0.11799,0.82734 1.97496,0.74329 1.93747,1.14725 -0.13797,0.34142 -3.64799,-0.23961 -3.64799,-0.23961 -0.50082,0.47614 -1.92813,0.3128 -1.77576,-0.25686 z"
       id="path34831"
       sodipodi:nodetypes="cccccccccccccccccccccccccccccccccccc" />
  </g>
  <g
     inkscape:groupmode="layer"
     id="layer9"
     inkscape:label="Layer 9"
     transform="translate(-572.52225,-101.79841)"
     style="display:inline">
    <path
       style="stroke:none;stroke-width:0.1"
       d="m 747.8725,137.13228 c -0.82982,0.06 -1.44096,0.32187 -1.90722,-0.1119 -0.24505,-0.22798 -0.13092,-0.65745 -0.13092,-0.99553 -0.35278,-0.35278 -0.66815,-0.20058 -1.02093,-0.55336 0.0655,-2.06303 -0.13886,-4.08971 -0.38411,-6.13224 -0.30648,-0.0802 -0.55685,-0.0855 -0.86333,-0.16563 -0.15122,-0.5481 -0.26206,-1.10457 -0.37347,-1.6616 0,0 -1.71124,-0.13807 -2.07989,0.40617 -0.25802,-0.97479 -1.73285,-0.0219 -1.89285,-0.15492 -0.43481,-0.36141 0.71062,-0.88936 1.04907,-1.34684 0.38211,-0.51651 0.5513,-1.46724 1.10755,-1.57748 0.39943,-0.0792 1.44421,1.39631 1.44421,1.39631 h 0.89709 c 0.16099,-1.78706 -0.54559,-4.67781 -0.81343,-5.13228 5.62507,-5.74632 2.47122,-7.27191 6.89884,-8.88574 v -1.85698 c -0.87489,0.0829 -0.6607,-0.70372 0,-0.635 -0.0391,-2.80355 3.65136,-2.23451 3.70554,-0.2556 0.77017,0.0412 0.63729,0.59847 0.0599,0.59016 -0.0359,1.02235 -0.1555,2.26193 -0.38324,2.41777 -0.90397,-0.077 -1.07384,0.17717 -1.46713,0.87995 2.06776,4.88361 -1.1516,4.87276 -0.66212,10.63888 -0.006,0.33968 0.54815,0.45492 0.82222,0.68238 3.81406,-1.59325 11.70722,-5.03784 11.81542,-4.7999 0.14899,0.32765 -7.7228,3.59353 -11.50937,5.35955 v 0.43504 c 0.59909,-0.0972 1.9656,-0.23555 1.9656,-0.23555 l 0.65063,4.18429 -6.79219,0.58243 c 0,0 -0.078,-0.92571 -0.19184,-1.37921 -0.26908,0.0641 -0.77366,0.225 -1.03471,0.31511 0,0 0.25059,0.80649 0.31505,1.22225 0.0905,1.72691 0.36997,3.04855 0.65723,4.73664 0.65306,0.17626 1.84201,1.73026 2.44587,1.71459 0,0 1.08795,0.23137 1.05833,0.49975 -0.0591,0.19472 -2.98162,0.01 -3.38583,-0.18151 z"
       id="path34841"
       sodipodi:nodetypes="caccccccsasccccccccccccsccccccccccccc" />
  </g>
  <g
     inkscape:groupmode="layer"
     id="layer10"
     inkscape:label="Layer 10"
     transform="translate(-572.52225,-101.79841)"
     style="display:inline">
    <path
       style="stroke:none;stroke-width:0.1"
       d="m 770.06393,137.747 -0.92604,0.005 c -0.61736,-0.3279 -1.60044,-1.30885 -2.06107,-0.98369 -0.71796,-0.37337 -1.36911,-0.22666 -1.04229,-1.07772 0.78216,-1.2631 5.345,-4.96339 8.92419,-6.13805 1.1399,-0.92585 2.27981,-1.85169 3.41972,-2.77753 -0.0307,-2.04705 1.11039,-2.87918 2.00424,-4.37997 0.53341,-3.18232 0.99706,-6.46566 3.83646,-7.54567 -0.0848,-0.642 -0.0979,-1.36397 -0.1091,-2.00998 -0.68066,-0.0335 -0.73144,-0.73567 0.006,-0.72962 0.1615,-3.11531 3.75782,-2.65178 3.90755,-0.41044 1.05146,0.0615 0.84104,0.69665 0.0212,0.72547 0.0247,0.61461 0.2892,2.40989 -0.14621,2.55906 -0.59951,0.16344 -0.95415,0.33197 -1.55273,0.76966 1.17929,1.96787 1.36175,4.24259 0.9116,6.45089 -0.3427,0.0896 -0.71152,0.0747 -1.05423,0.16437 v 0.80763 c 0.36891,0.11709 0.94517,0.0809 1.10671,0.35125 0.11732,0.19636 -0.28703,1.01051 -0.44525,1.56606 1.19507,0.57038 3.43185,1.345 3.62771,1.77251 -0.51682,2.19755 -1.19253,4.50738 -1.19253,6.79083 -0.60537,0.0791 -1.18673,0.13834 -1.82023,0.13834 0,0 -0.0657,1.13315 0.46222,1.1506 -0.11624,1.63908 -0.28535,1.67474 1.19623,2.20148 0.0363,0.47754 -1.67414,0.0674 -2.41087,0.0875 -0.30695,-0.36888 -0.61391,-0.73776 -0.92086,-1.10664 -1.48036,-0.63709 -1.62926,-0.99473 -0.55563,-2.06836 -1.20997,-0.0152 -2.34265,0.51273 -3.52113,0.79774 -0.44906,-1.42155 -1.45169,-4.36913 -1.45169,-4.36913 0,0 1.87248,-0.76811 1.82428,-0.74751 1.52986,-1.45773 1.80628,-1.53701 -0.63121,-1.50186 -7.24252,5.18373 -6.28401,2.5007 -10.94996,7.26902 -0.36351,-0.2115 -0.68687,-0.47053 -1.00896,-0.73784 -0.17123,0.17123 -0.34246,0.34245 -0.51369,0.51368 l 0.59224,1.6989 c 0.46636,0.25336 1.66414,0.2716 1.39908,0.76005 -0.3082,0.002 -0.61966,0.004 -0.92605,0.004 z"
       id="path34845"
       sodipodi:nodetypes="cccccccccccccccccscccccccccccccccccccc" />
  </g>
  <g
     inkscape:groupmode="layer"
     id="layer11"
     inkscape:label="Layer 11"
     transform="translate(-572.52225,-101.79841)"
     style="display:inline">
    <path
       style="stroke:none;stroke-width:0.1"
       d="m 805.51751,136.76107 c -0.0201,-0.61412 0.12204,-0.76061 0.50482,-1.14339 0.4762,-3.18369 1.6151,-4.80651 1.60865,-7.67081 -0.75373,-0.9299 -1.82239,-4.53983 -3.36325,-5.90204 -0.18356,-0.40588 -0.14375,-1.32863 -0.14375,-1.32863 -1.78691,-0.58388 -3.3908,0.45555 -4.03109,-0.32402 l -0.40488,-0.82306 c -0.69435,-0.60303 -3.00025,-0.0273 -3.20842,-0.97159 0.19655,-0.36723 0.57455,-0.84789 0.77109,-1.21512 0.3006,0.08 0.68686,-0.0445 1.1539,-0.3791 0.53839,-0.40654 2.4713,-1.72733 2.79489,-1.26762 0.16857,0.25948 -0.38072,0.82145 -0.70136,1.1818 -0.0194,0.39706 -0.12954,0.93023 -0.14894,1.32729 1.50412,-0.0666 3.00517,-0.17859 4.50663,-0.2872 0.69621,-0.5885 0.99722,-1.2555 1.88538,-1.2555 2.23069,-2.20295 1.92084,-4.44403 4.8615,-4.74589 -0.0245,-0.42487 0.0418,-0.84332 0.0907,-1.264 -1.13507,-0.0754 -0.46808,-0.8489 0.12848,-0.72992 0.0953,-2.81571 3.67026,-2.30073 3.54871,-0.4455 0.79342,0.0106 0.79729,0.78847 0.0359,0.76991 0.11438,1.0991 -0.11613,2.17587 -0.28845,2.23044 -0.42093,0.13329 -0.83671,0.2711 -1.26641,0.37262 0.10738,2.46548 -0.0816,4.23984 -1.56853,6.03748 -0.67267,1.85239 -0.23867,1.99857 0.38687,3.16471 0,0 -0.43135,0.16579 -0.4053,0.34026 0.0351,0.23527 0.96552,0.0479 -0.13295,0.72573 -0.20765,0.49054 0.65778,0.4687 1.183,0.4687 -0.31529,0.71725 -0.53463,1.1797 -0.73721,1.88953 0.53394,-0.10679 1.66987,-0.43378 1.66987,-0.43378 l 1.15016,4.39061 -3.13796,0.96805 c 0,0 -0.30326,5.75561 -0.80066,5.78815 -0.4974,0.0325 0.0401,-5.62052 0.0401,-5.62052 -0.47439,0.10836 -0.93978,0.24394 -1.40309,0.39099 -0.37415,1.31957 -0.74864,2.63905 -1.12247,3.95871 -0.27012,0 -0.80805,-0.27011 -0.81036,0 -0.0129,1.50553 2.7623,1.61958 2.51354,2.11799 -0.23215,0.46512 -3.45978,-0.29676 -3.46018,0.15007 -0.9238,0.0263 -1.69895,0.58102 -1.69895,-0.46535 z"
       id="path34839"
       sodipodi:nodetypes="ccccccccccccccccccccscccscccccczcccsscc" />
  </g>
  <g
     inkscape:groupmode="layer"
     id="layer12"
     inkscape:label="Layer 12"
     transform="translate(-572.52225,-101.79841)"
     style="display:inline">
    <path
       style="stroke:none;stroke-width:0.1"
       d="m 823.99043,137.31876 c -0.82911,-0.89976 -1.91108,-2.32967 -1.80064,-2.67467 -0.32632,-0.49353 2.16253,-0.89519 3.83529,-4.83616 0.007,-0.0317 -1.24444,0.50977 -1.24444,0.50977 l -0.89124,-2.12699 -0.86376,-2.04451 c 0,0 1.09214,-0.49917 1.54423,-0.66558 -0.19436,-0.33135 -0.49867,-0.77267 -0.69302,-1.10403 -2.50267,-0.16928 -1.95077,0.38471 -2.46576,-2.35141 -1.15072,-6.07628 -1.65146,-7.32344 3.55026,-10.23867 0.002,-0.13229 0.059,-0.31957 0.061,-0.45186 -0.98303,-0.0555 -0.69114,-0.82313 0.15074,-0.67861 0.63125,-2.38932 4.29312,-1.32809 3.71343,0.73311 0.76561,0.23784 0.54848,0.86287 -0.23216,0.74747 -0.19184,0.83 -0.74357,2.06348 -1.07633,2.13585 -0.36881,0.0802 -1.02233,0.0275 -1.02233,0.0275 0.006,0.13856 -0.0138,0.27582 -0.0275,0.41338 1.25657,0.7109 0.98656,1.99536 1.68331,1.99536 1.46754,-0.83804 1.98866,-1.89559 3.85021,-1.56634 1.79733,-0.0557 2.72108,-0.94281 4.12436,-1.88737 0.42389,0.32913 0.6331,0.78039 1.15721,0.78039 0.61514,-0.0213 0.77079,-0.77527 0.9919,-0.99512 0.25246,-0.25102 0.76485,0.0128 1.04876,-0.20198 0.47038,-0.35586 0.28931,-1.60303 0.79458,-1.58103 0.33578,0.0146 0.17515,1.24989 0.11312,1.62147 -0.85117,0.9527 -0.0895,1.95639 -0.80997,2.67691 -0.5805,0.45637 -1.16884,0.13004 -1.85057,-0.006 -4.94476,2.00618 -5.98459,1.88052 -9.79028,5.7621 0.22331,0.82944 0.7799,2.65327 0.7799,2.65327 l 1.0591,-0.3923 c 0,0 0.91742,2.70334 1.37255,4.05622 -1.74613,1.85395 -3.14231,4.38095 -4.32534,6.70753 -0.59602,0 -1.19203,-0.43984 -1.70558,-0.19243 0.0728,1.6099 -0.32147,2.22284 -0.194,2.43807 0.15216,0.42427 1.16008,0.29261 1.05212,0.73693 -0.61686,0.17326 -1.21635,-2.4e-4 -1.88913,-2.4e-4 z"
       id="path34843"
       sodipodi:nodetypes="ccccccccccccccsccccccsasccccccccccccc" />
  </g>
</svg>
